{"glyphs":{"0":{"ha":792,"x_min":0,"x_max":0,"o":"m 306 215 b 333 111 306 146 315 111 b 432 281 363 111 396 168 b 486 563 468 394 486 488 b 480 647 486 606 484 634 b 451 667 476 660 466 667 b 357 498 423 667 391 610 b 306 215 323 385 306 291 m 21 264 b 159 644 21 410 67 537 b 479 806 251 752 358 806 b 613 778 526 806 571 797 b 724 683 655 760 692 728 b 771 514 755 637 771 581 b 630 131 771 364 724 236 b 313 -28 536 25 430 -28 b 185 2 271 -28 228 -18 b 71 101 142 22 104 55 b 21 264 38 148 21 202 "},"1":{"ha":792,"x_min":0,"x_max":0,"o":"m 7 122 l 7 129 b 13 162 7 148 9 159 b 49 167 16 165 28 167 l 146 167 b 206 174 179 167 199 169 b 228 225 213 179 220 196 l 282 444 b 290 479 288 465 290 476 b 257 493 290 488 279 493 l 168 493 b 133 498 148 493 136 495 b 128 533 129 501 128 513 l 128 611 b 133 640 128 626 130 636 b 153 647 137 645 144 647 b 167 647 156 647 160 647 b 183 646 173 646 179 646 b 258 649 212 646 237 647 b 342 662 280 650 307 655 b 440 701 376 669 409 682 b 526 772 472 720 500 744 b 540 788 530 776 534 781 b 552 804 545 795 549 800 b 568 815 555 808 561 811 b 596 819 575 818 585 819 l 632 819 b 660 796 650 819 660 812 b 650 747 660 791 656 775 l 525 225 b 521 209 524 220 523 215 b 517 194 519 203 518 198 b 515 183 516 190 515 186 b 560 167 515 172 530 167 l 646 167 b 676 163 663 167 672 166 b 681 140 679 161 681 153 l 681 128 l 681 56 l 681 31 b 673 6 681 18 678 9 b 638 0 668 2 656 0 l 57 0 l 50 0 b 13 6 29 0 16 2 b 7 47 9 10 7 24 "},"2":{"ha":792,"x_min":0,"x_max":0,"o":"m 765 275 b 623 42 736 185 688 108 b 417 -56 558 -23 489 -56 b 304 -31 374 -56 337 -47 b 218 17 272 -15 243 1 b 146 42 193 34 169 42 b 60 7 107 42 78 30 b 51 -6 57 3 54 -1 b 44 -18 47 -11 45 -15 b 34 -25 42 -21 39 -23 b 13 -28 29 -27 22 -28 l -28 -28 b -64 -14 -52 -28 -64 -23 b -56 18 -64 -11 -61 0 b -8 118 -44 53 -28 87 b 53 195 13 150 33 175 b 136 261 72 215 100 237 b 217 312 172 285 199 302 b 308 360 235 322 266 338 b 439 485 371 393 415 435 b 475 625 463 535 475 581 b 381 706 475 679 444 706 b 346 698 367 706 355 703 b 328 683 337 693 331 688 b 325 671 326 679 325 675 b 335 656 325 666 328 661 b 358 638 342 650 350 644 b 381 607 367 632 374 622 b 392 553 388 592 392 574 b 341 437 392 507 375 469 b 229 389 307 405 270 389 b 110 435 186 389 146 404 b 57 550 75 466 57 505 b 117 690 57 604 77 650 b 265 778 158 730 207 759 b 447 806 322 796 383 806 b 566 796 490 806 529 802 b 672 765 603 789 638 779 b 752 700 705 750 732 729 b 782 597 772 671 782 637 b 747 478 782 554 770 514 b 647 384 724 443 691 411 b 510 315 603 357 557 334 b 343 257 463 296 407 276 b 318 247 332 253 324 250 b 308 232 309 243 305 238 b 326 231 310 226 316 226 b 407 251 355 244 382 251 b 472 239 431 251 453 247 b 531 226 491 231 510 226 b 640 294 583 226 620 249 b 645 306 641 296 643 300 b 649 315 647 311 649 314 b 652 320 649 315 650 317 b 658 325 654 323 656 325 b 665 327 659 325 662 326 b 677 329 669 328 673 329 l 693 329 l 743 329 b 778 314 766 329 778 324 b 765 275 778 313 774 300 "},"3":{"ha":792,"x_min":0,"x_max":0,"o":"m -83 -15 b -32 140 -83 47 -66 98 b 100 201 2 181 46 201 b 200 165 146 201 180 189 b 231 79 220 141 231 113 b 201 -1 231 42 221 15 b 143 -37 182 -18 163 -30 b 114 -64 124 -44 114 -53 b 203 -110 114 -94 144 -110 b 325 -48 256 -110 297 -89 b 367 125 353 -7 367 51 b 347 222 367 169 360 202 b 288 261 334 243 314 256 b 269 263 282 262 276 263 b 254 265 262 264 257 264 b 246 270 251 266 249 268 b 240 281 243 272 241 276 b 239 303 239 286 239 294 l 239 358 b 240 376 239 366 239 372 b 247 386 241 381 243 384 b 255 390 250 388 253 389 b 268 390 257 390 262 390 b 285 392 275 390 280 391 b 450 599 395 406 450 475 b 425 668 450 629 442 652 b 356 692 408 684 385 692 b 297 679 332 692 313 688 b 274 650 281 671 274 661 b 287 628 274 642 278 634 b 314 599 296 621 305 612 b 328 547 323 587 328 569 b 286 451 328 509 314 477 b 193 411 258 424 227 411 b 99 447 155 411 124 423 b 63 558 75 470 63 507 b 163 737 63 631 96 691 b 439 806 230 783 322 806 b 542 796 474 806 509 802 b 644 765 576 789 610 779 b 726 701 678 750 705 729 b 757 599 747 672 757 638 b 701 446 757 539 738 488 b 539 357 663 403 609 374 b 474 335 495 347 474 339 b 542 304 474 330 496 320 b 674 125 630 275 674 216 b 607 -78 674 45 651 -22 b 437 -199 563 -134 506 -175 b 203 -236 368 -224 290 -236 b -13 -169 106 -236 34 -214 b -83 -15 -60 -125 -83 -74 "},"4":{"ha":792,"x_min":0,"x_max":0,"o":"m 681 -164 b 675 -202 681 -185 679 -198 b 640 -208 671 -206 660 -208 l 633 -208 l 165 -208 b 151 -209 162 -208 157 -209 b 139 -210 145 -209 141 -210 b 122 -203 131 -210 125 -208 b 118 -178 119 -199 118 -191 l 118 -107 l 118 -87 b 122 -73 118 -80 119 -75 b 143 -69 125 -71 132 -69 l 239 -69 b 264 -66 253 -69 261 -68 b 272 -44 267 -64 269 -56 l 288 22 b 290 32 288 25 288 28 b 292 40 291 36 292 38 b 267 49 292 46 283 49 l 31 49 l 3 49 b -16 55 -6 49 -13 51 b -21 82 -19 59 -21 68 l -21 113 b 6 200 -21 141 -12 170 b 97 323 27 235 57 276 b 210 449 137 370 175 412 b 314 572 245 486 280 527 b 386 696 348 618 372 659 b 395 731 390 706 393 718 b 402 758 397 745 400 754 b 419 772 404 763 410 767 b 458 778 428 776 441 778 l 619 778 b 675 774 646 778 665 776 b 690 753 685 771 690 764 b 681 714 690 748 687 735 b 577 567 665 668 630 619 b 412 433 524 516 469 471 b 237 306 355 394 297 352 b 111 188 177 260 135 221 l 281 188 b 320 193 303 188 316 189 b 333 228 324 197 329 208 l 346 282 b 359 317 350 300 354 312 b 396 335 364 322 376 328 b 590 446 485 363 550 400 b 606 467 597 452 602 459 b 615 482 609 475 613 480 b 631 485 618 484 623 485 l 657 485 b 689 474 678 485 689 481 b 688 467 689 472 688 469 b 685 456 687 464 686 460 b 682 444 684 452 683 448 l 633 228 b 631 216 632 224 631 220 b 628 206 630 212 629 209 b 628 200 628 204 628 202 b 663 188 628 192 639 188 l 690 188 l 714 188 b 732 182 723 188 729 186 b 736 156 735 178 736 169 l 736 83 b 731 53 736 66 734 56 b 700 49 728 50 718 49 l 593 49 l 588 28 l 574 -39 b 569 -60 571 -48 569 -55 b 603 -69 569 -66 581 -69 l 639 -69 l 656 -69 b 676 -75 667 -69 674 -71 b 681 -103 679 -79 681 -88 "},"5":{"ha":792,"x_min":0,"x_max":0,"o":"m -35 -15 b 6 125 -35 37 -21 83 b 124 188 34 167 73 188 b 229 155 170 188 205 177 b 265 63 253 133 265 102 b 236 -13 265 32 256 7 b 178 -59 217 -33 197 -48 b 149 -86 158 -70 149 -79 b 217 -129 149 -115 171 -129 b 363 -57 280 -129 328 -105 b 415 153 398 -9 415 61 b 394 276 415 214 408 255 b 329 308 381 298 359 308 b 210 264 294 308 254 294 b 149 246 190 252 170 246 l 100 246 b 63 256 75 246 63 249 b 69 282 63 259 65 268 l 210 728 b 233 776 218 755 226 771 b 293 785 241 782 261 785 l 419 785 b 515 782 447 785 479 784 b 583 779 551 780 574 779 b 657 797 616 779 640 785 b 672 811 661 800 666 805 b 692 825 679 818 685 822 b 721 829 698 828 708 829 l 768 829 l 792 829 b 808 821 803 829 808 826 b 804 803 808 817 807 811 l 746 618 b 720 561 738 594 730 575 b 683 526 710 547 698 535 b 613 505 667 516 644 509 b 508 496 581 501 546 498 b 347 493 469 494 416 493 l 290 493 b 276 492 285 493 280 493 b 267 491 273 492 270 491 b 261 486 265 491 263 489 b 258 481 259 483 258 481 b 255 472 257 480 256 477 b 251 461 253 468 252 464 l 239 422 b 233 399 235 411 233 403 b 236 394 233 396 234 394 b 242 397 237 394 239 395 l 253 402 l 265 408 b 400 438 309 428 354 438 b 625 360 485 438 560 412 b 722 181 690 309 722 249 b 578 -119 722 58 674 -42 b 231 -236 483 -197 367 -236 b 36 -175 148 -236 83 -216 b -35 -15 -11 -134 -35 -81 "},"6":{"ha":792,"x_min":0,"x_max":0,"o":"m 415 624 b 508 646 443 638 474 646 b 682 586 574 646 632 626 b 757 403 732 546 757 485 b 707 205 757 335 740 269 b 553 40 674 141 622 86 b 318 -28 484 -5 406 -28 b 113 62 233 -28 164 2 b 35 306 61 122 35 203 b 113 641 35 419 61 530 b 315 910 166 752 233 841 b 561 1014 397 979 479 1014 b 710 965 620 1014 670 998 b 771 835 751 933 771 889 b 733 722 771 791 758 753 b 626 674 707 690 672 674 b 526 703 582 674 548 684 b 492 785 503 723 492 750 b 506 830 492 803 497 818 b 535 857 516 841 526 850 b 550 876 545 863 550 870 b 526 894 550 888 542 894 b 447 825 501 894 475 871 b 369 644 418 779 393 719 b 363 611 365 631 363 620 b 369 600 363 604 365 600 b 415 624 370 600 386 608 m 306 236 b 314 133 306 181 308 147 b 353 111 319 118 332 111 b 429 214 380 111 405 145 b 465 417 453 282 465 350 b 429 501 465 473 453 501 b 348 410 403 501 376 471 b 306 236 320 350 306 292 "},"7":{"ha":792,"x_min":0,"x_max":0,"o":"m 36 479 b 74 607 48 528 61 571 b 127 713 88 643 105 678 b 208 792 149 748 176 774 b 321 819 241 810 278 819 b 437 795 363 819 402 811 b 530 747 472 779 503 763 b 606 722 557 730 582 722 b 699 765 648 722 679 737 b 705 776 700 768 703 772 b 710 785 707 781 709 784 b 719 790 712 787 715 788 b 738 792 724 791 730 792 l 806 792 b 833 782 824 792 833 788 b 828 760 833 780 831 773 b 797 695 821 740 811 719 b 731 603 783 672 761 641 b 663 519 701 566 678 538 b 570 413 648 501 617 465 b 485 317 523 360 495 328 b 430 255 471 300 453 279 b 385 206 407 230 392 214 b 360 172 378 197 370 186 b 341 137 350 158 343 147 b 338 104 339 127 338 116 b 351 55 338 85 342 68 b 381 24 361 41 371 31 b 411 -10 392 17 402 6 b 425 -69 420 -27 425 -46 b 374 -188 425 -117 408 -156 b 246 -236 339 -220 297 -236 b 108 -188 192 -236 146 -220 b 50 -44 69 -156 50 -108 b 126 152 50 24 75 90 b 333 349 177 215 246 280 b 467 465 380 385 424 424 b 480 476 469 468 474 472 b 489 485 486 481 489 484 b 488 492 489 486 488 488 b 482 491 486 493 484 492 b 472 485 480 490 477 488 b 456 482 468 483 462 482 b 364 510 431 482 401 491 b 276 538 327 528 298 538 b 164 463 220 538 182 513 b 160 451 163 460 162 456 b 157 443 159 447 158 444 b 152 439 156 442 154 441 b 143 435 150 437 147 436 b 128 435 139 435 134 435 l 56 435 b 28 447 37 435 28 439 b 31 462 28 450 29 455 b 36 479 34 469 35 475 "},"8":{"ha":792,"x_min":0,"x_max":0,"o":"m 285 194 b 294 124 285 159 288 136 b 326 107 301 113 312 107 b 400 194 350 107 375 136 b 438 375 425 252 438 312 b 403 451 438 426 426 451 b 324 363 377 451 351 422 b 285 194 298 303 285 247 m 139 681 b 244 909 139 763 174 839 b 507 1014 314 979 401 1014 b 715 958 595 1014 664 995 b 792 792 766 921 792 866 b 740 642 792 740 774 690 b 603 535 705 594 659 558 b 561 508 575 524 561 515 b 601 486 561 502 575 494 b 685 424 637 474 664 453 b 715 319 705 394 715 359 b 605 77 715 228 678 147 b 299 -28 531 7 429 -28 b 81 31 202 -28 130 -8 b 7 194 31 69 7 124 b 59 366 7 258 24 316 b 203 476 94 416 142 453 b 260 506 241 491 260 501 b 213 539 260 509 244 520 b 139 681 163 568 139 615 m 410 625 b 438 563 410 583 419 563 b 494 644 457 563 476 590 b 521 806 512 699 521 753 b 496 875 521 852 513 875 b 434 794 471 875 450 848 b 410 625 418 740 410 683 "},"9":{"ha":792,"x_min":0,"x_max":0,"o":"m 369 154 b 276 132 342 139 311 132 b 103 192 211 132 153 152 b 28 375 53 231 28 293 b 78 573 28 443 44 509 b 231 738 111 637 162 692 b 467 806 300 783 379 806 b 672 716 552 806 620 776 b 750 472 724 656 750 575 b 672 137 750 359 724 247 b 470 -133 619 26 552 -64 b 224 -236 388 -202 306 -236 b 74 -187 164 -236 115 -220 b 14 -57 34 -155 14 -112 b 52 56 14 -13 27 24 b 158 104 78 88 113 104 b 259 74 203 104 236 94 b 293 -7 282 54 293 27 b 278 -52 293 -25 288 -41 b 249 -79 269 -64 259 -73 b 235 -99 240 -86 235 -92 b 258 -117 235 -111 243 -117 b 338 -47 283 -117 310 -94 b 415 133 366 -1 392 59 b 422 167 420 146 422 157 b 415 178 422 174 420 178 b 369 154 414 178 399 170 m 479 542 b 471 645 479 596 476 631 b 432 667 465 659 452 667 b 356 564 405 667 380 632 b 319 361 331 495 319 428 b 356 276 319 305 331 276 b 437 367 381 276 409 307 b 479 542 465 428 479 486 "}," ":{"ha":417,"x_min":0,"x_max":0,"o":""},"!":{"ha":525,"x_min":0,"x_max":0,"o":"m 63 139 b 112 257 63 185 79 225 b 229 306 145 289 184 306 b 347 257 275 306 314 289 b 396 139 379 225 396 185 b 347 21 396 93 379 53 b 229 -28 314 -12 275 -28 b 112 21 184 -28 145 -12 b 63 139 79 53 63 93 m 528 831 b 403 607 500 756 458 681 b 293 428 347 533 311 473 b 286 405 291 423 289 416 b 279 384 283 394 281 387 b 265 374 277 381 273 377 b 236 368 258 370 248 368 l 208 368 b 165 381 180 368 165 372 b 169 408 165 386 167 395 b 178 496 175 440 178 469 b 167 617 178 523 174 563 b 157 747 160 670 157 714 b 174 901 157 797 163 849 b 240 1014 183 950 205 987 b 365 1054 274 1041 316 1054 b 495 1012 420 1054 463 1040 b 543 913 527 984 543 950 b 528 831 543 885 538 857 "},"\"":{"ha":774,"x_min":0,"x_max":0,"o":"m 194 650 b 170 653 183 650 175 651 b 162 660 165 656 162 658 b 160 679 161 662 161 668 b 158 689 159 683 158 686 b 139 815 155 724 148 766 b 125 933 130 863 125 903 b 176 1042 125 980 142 1016 b 299 1081 209 1068 250 1081 b 397 1047 335 1081 367 1069 b 440 954 426 1025 440 994 b 404 867 440 925 428 897 b 323 776 380 838 353 808 b 263 683 293 744 273 713 b 259 670 262 680 260 675 b 256 660 258 665 257 662 b 251 655 256 659 254 657 b 242 651 249 653 245 651 b 225 650 238 650 232 650 m 597 650 b 573 653 586 650 578 651 b 565 660 568 656 565 658 b 563 679 564 662 563 668 b 561 689 562 683 561 686 b 542 815 557 724 551 766 b 528 933 532 863 528 903 b 578 1042 528 980 545 1016 b 701 1081 612 1068 653 1081 b 799 1047 738 1081 770 1069 b 843 954 828 1025 843 994 b 807 867 843 925 831 897 b 726 776 783 838 756 808 b 665 683 696 744 675 713 b 662 670 664 680 663 675 b 659 660 660 665 659 662 b 654 655 659 659 657 657 b 644 651 651 653 648 651 b 628 650 641 650 635 650 "},"#":{"ha":917,"x_min":0,"x_max":0,"o":"m 501 1118 b 540 1108 527 1118 540 1115 b 533 1081 540 1106 538 1096 l 464 829 b 453 786 456 801 453 787 b 504 771 453 776 470 771 l 540 771 b 577 775 558 771 570 772 b 590 785 584 778 588 781 b 600 815 592 788 595 799 l 672 1072 b 676 1083 673 1074 674 1078 b 678 1092 677 1088 678 1091 b 680 1099 678 1093 678 1095 b 683 1105 681 1102 682 1104 b 687 1109 684 1105 685 1107 b 692 1113 688 1111 690 1113 b 699 1115 694 1114 696 1114 b 708 1117 701 1116 704 1117 b 718 1117 711 1117 714 1117 b 732 1118 722 1118 726 1118 l 797 1118 b 831 1103 819 1118 831 1113 b 828 1092 831 1100 830 1097 b 822 1076 827 1088 825 1083 b 817 1060 819 1070 818 1064 l 750 821 b 742 785 744 799 742 787 b 751 773 742 778 745 774 b 789 771 757 772 769 771 l 931 771 l 938 771 b 956 767 948 771 954 769 b 958 744 957 764 958 756 l 958 658 l 958 651 b 954 628 958 638 957 631 b 928 625 951 626 943 625 l 735 625 l 719 625 b 707 623 715 625 711 624 b 699 619 703 622 701 620 b 694 613 698 619 696 616 b 691 606 693 610 691 608 b 688 596 691 605 690 601 b 685 583 687 590 686 586 l 656 483 b 647 451 650 463 647 452 b 696 438 647 442 663 438 l 819 438 l 839 438 b 857 432 848 438 854 436 b 861 407 860 428 861 420 l 861 343 l 861 315 b 855 297 861 306 859 300 b 828 292 851 293 842 292 l 643 292 b 607 288 624 292 612 290 b 594 261 602 285 598 276 l 510 -40 b 495 -72 505 -58 500 -68 b 458 -76 490 -75 478 -76 l 449 -76 l 397 -76 l 389 -76 b 362 -75 375 -76 366 -76 b 356 -65 358 -74 356 -71 b 356 -60 356 -63 356 -62 b 358 -51 357 -58 357 -55 b 361 -40 359 -47 360 -43 l 444 256 b 451 282 449 269 451 278 b 415 292 451 288 439 292 l 361 292 b 318 286 338 292 324 290 b 303 253 313 282 307 271 l 218 -51 b 208 -73 214 -63 211 -71 b 182 -76 204 -75 196 -76 l 107 -76 b 67 -64 80 -76 67 -72 b 75 -32 67 -63 69 -52 l 151 244 b 158 263 152 248 154 254 b 163 279 161 271 163 276 b 131 292 163 288 152 292 l -8 292 l -24 292 b -38 296 -31 292 -36 293 b -42 317 -41 299 -42 306 l -42 397 b -42 409 -42 400 -42 404 b -43 419 -43 414 -43 418 b -19 438 -43 431 -35 438 l 146 438 b 199 443 175 438 192 439 b 218 481 205 447 212 459 l 247 585 b 253 613 251 596 253 605 b 219 625 253 621 242 625 l 203 625 l 106 625 l 83 625 b 60 631 71 625 64 627 b 56 663 57 635 56 646 l 56 718 l 56 740 b 62 766 56 754 58 763 b 97 771 66 769 78 771 l 246 771 b 265 772 253 771 260 771 b 280 773 271 772 276 772 b 290 777 284 773 288 775 b 297 781 293 779 295 781 b 303 789 299 782 301 784 b 306 797 305 794 306 796 b 310 810 307 798 308 802 b 314 825 312 817 313 822 l 383 1072 b 387 1085 384 1075 385 1079 b 390 1095 388 1090 389 1094 b 392 1103 390 1097 391 1099 b 397 1110 394 1106 395 1109 b 403 1113 399 1111 401 1112 b 412 1116 406 1115 409 1116 b 424 1117 415 1116 419 1117 b 440 1118 428 1118 434 1118 m 444 625 b 412 621 427 625 416 624 b 399 596 408 618 403 610 l 365 478 b 358 450 361 462 358 453 b 396 438 358 442 371 438 l 460 438 b 478 439 467 438 473 438 b 489 441 482 440 486 441 b 497 447 492 441 494 444 b 501 455 499 451 500 453 b 503 467 501 456 502 460 b 507 481 505 473 506 478 l 539 594 b 543 615 542 604 543 611 b 524 625 543 622 537 625 l 499 625 "},"$":{"ha":1046,"x_min":0,"x_max":0,"o":"m 721 1160 l 740 1160 b 758 1150 752 1160 758 1156 b 756 1133 758 1148 757 1143 l 742 1088 b 738 1068 739 1077 738 1071 b 764 1051 738 1062 746 1056 b 769 1050 767 1050 769 1050 b 953 963 844 1032 906 1003 b 1025 804 1001 922 1025 869 b 981 681 1025 752 1010 711 b 874 636 952 651 916 636 b 763 668 830 636 793 647 b 718 765 733 689 718 722 b 747 828 718 789 728 810 b 776 868 767 847 776 860 b 733 915 776 893 762 909 b 711 918 727 917 719 918 b 695 912 704 918 698 916 b 685 885 692 908 688 899 l 635 706 l 629 683 b 658 665 629 678 639 672 b 749 636 694 655 725 645 b 832 596 773 627 800 613 b 907 538 863 578 888 559 b 955 455 925 516 941 489 b 975 340 968 421 975 383 b 817 97 975 249 922 168 b 469 -25 712 27 596 -14 b 456 -26 467 -25 462 -25 b 444 -27 449 -26 445 -27 b 436 -29 442 -28 440 -28 b 429 -33 432 -30 430 -31 l 426 -40 b 421 -51 424 -43 423 -47 l 407 -99 b 382 -118 404 -112 396 -118 l 368 -118 l 276 -118 b 251 -110 260 -118 251 -115 l 257 -90 l 268 -50 b 275 -25 273 -38 275 -30 b 251 -11 275 -19 267 -15 b 127 38 203 0 162 16 b 49 111 92 60 66 84 b 11 191 31 138 19 165 b 0 272 4 217 0 244 b 41 393 0 321 14 362 b 151 440 68 425 105 440 b 256 406 197 440 232 429 b 293 311 281 384 293 352 b 284 260 293 291 290 274 b 264 234 278 247 271 238 b 244 218 256 230 250 225 b 235 194 238 212 235 204 b 282 138 235 169 250 150 b 306 132 292 134 300 132 b 321 140 313 132 318 134 b 331 171 324 145 327 155 l 386 367 b 393 400 391 385 393 396 b 360 424 393 408 382 416 b 183 522 286 447 227 479 b 118 706 140 564 118 625 b 186 886 118 772 141 832 b 348 1009 231 940 285 981 b 543 1065 410 1037 475 1056 b 580 1074 563 1068 576 1071 b 593 1103 584 1078 588 1087 l 601 1132 b 613 1156 605 1145 609 1153 b 643 1160 616 1158 626 1160 m 510 900 b 447 792 468 879 447 843 b 465 744 447 774 453 758 b 483 732 473 736 479 732 b 499 765 487 732 492 743 l 531 879 b 536 903 534 894 536 902 b 532 908 536 906 535 908 b 510 900 528 908 521 906 m 514 131 b 642 264 599 149 642 194 b 586 350 642 301 623 330 b 551 367 566 361 554 367 b 531 339 543 367 536 357 l 478 150 b 475 133 476 141 475 135 b 483 125 475 128 478 125 b 514 131 485 125 495 127 "},"%":{"ha":1569,"x_min":0,"x_max":0,"o":"m 1056 194 b 1062 110 1056 152 1058 124 b 1088 90 1066 97 1075 90 b 1160 179 1113 90 1137 120 b 1194 389 1183 238 1194 308 b 1188 473 1194 431 1192 459 b 1163 493 1184 486 1175 493 b 1091 396 1138 493 1115 461 b 1056 194 1067 331 1056 264 m 785 222 b 909 506 785 342 826 436 b 1194 611 992 576 1087 611 b 1380 545 1261 611 1323 589 b 1465 361 1437 501 1465 440 b 1335 86 1465 254 1422 162 b 1056 -28 1248 10 1155 -28 b 867 38 984 -28 921 -6 b 785 222 812 81 785 143 m 1233 1042 b 1282 1032 1266 1042 1282 1038 b 1251 993 1282 1030 1272 1017 l 444 35 b 438 26 443 33 441 30 b 433 19 436 23 434 20 b 427 13 431 17 429 15 b 420 7 425 10 422 8 b 412 3 418 6 415 5 b 400 1 409 2 405 1 b 385 0 395 0 390 0 l 304 0 b 258 8 274 0 258 3 b 289 46 258 9 269 22 l 1097 999 b 1107 1011 1099 1001 1102 1006 b 1117 1022 1112 1017 1115 1020 b 1126 1031 1119 1024 1122 1027 b 1138 1038 1130 1034 1134 1037 b 1154 1040 1142 1038 1148 1039 b 1178 1042 1161 1041 1169 1042 m 347 653 b 353 569 347 610 349 582 b 379 549 358 555 366 549 b 451 638 404 549 428 578 b 486 847 475 697 486 767 b 480 931 486 890 484 918 b 454 951 476 945 467 951 b 383 854 430 951 406 919 b 347 653 359 789 347 722 m 76 681 b 201 965 76 800 118 895 b 486 1069 284 1034 379 1069 b 672 1003 553 1069 615 1047 b 757 819 728 959 757 898 b 626 544 757 712 713 620 b 347 431 539 469 446 431 b 158 496 276 431 213 452 b 76 681 104 539 76 601 "},"&":{"ha":1278,"x_min":0,"x_max":0,"o":"m 949 450 b 878 481 918 450 894 460 b 853 564 861 502 853 530 b 914 669 853 609 873 644 b 1054 707 955 694 1001 707 b 1190 657 1113 707 1159 690 b 1236 521 1221 624 1236 578 b 1144 335 1236 463 1205 401 b 903 150 1082 268 1002 206 b 978 126 918 134 943 126 b 1047 163 1000 126 1023 138 b 1058 174 1051 166 1055 170 b 1067 184 1062 178 1065 182 b 1073 190 1069 186 1071 188 b 1079 192 1075 191 1077 192 b 1111 174 1085 192 1095 186 l 1164 133 b 1189 107 1181 120 1189 112 b 1171 78 1189 102 1183 93 b 876 -49 1102 -6 1004 -49 b 700 -3 805 -49 746 -33 b 635 26 671 17 650 26 b 576 15 621 26 601 23 b 319 -21 488 -9 403 -21 b 87 47 221 -21 144 2 b 1 222 30 91 1 150 b 69 422 1 305 24 371 b 257 554 114 473 176 517 b 284 565 265 558 274 561 b 306 572 294 568 301 570 b 321 578 311 574 316 576 b 331 585 325 580 329 582 b 333 594 332 588 333 591 b 313 653 333 603 326 622 b 276 810 288 705 276 757 b 412 1000 276 890 322 954 b 750 1069 502 1046 615 1069 b 967 1027 840 1069 912 1055 b 1050 910 1022 999 1050 960 b 1038 835 1050 883 1046 858 b 999 774 1030 813 1017 792 b 946 726 980 755 963 739 b 872 685 929 713 905 700 b 794 651 840 670 814 659 b 707 617 775 643 746 631 b 675 594 686 609 675 602 b 692 558 675 591 681 579 l 807 333 b 815 316 809 329 812 323 b 823 301 819 309 822 304 b 828 292 824 299 826 295 b 835 285 831 288 833 286 b 843 283 838 284 840 283 b 881 303 850 283 862 290 b 981 388 921 331 955 360 b 1021 446 1008 416 1021 436 b 1013 458 1021 454 1018 458 b 994 454 1012 458 1005 457 b 949 450 982 451 967 450 m 321 264 b 349 177 321 222 330 193 b 438 153 368 161 398 153 b 522 158 457 153 485 155 b 569 175 554 162 569 168 b 554 210 569 181 564 192 l 440 419 b 406 456 427 444 416 456 b 360 406 396 456 381 439 b 321 264 334 365 321 318 m 753 910 b 713 958 753 942 739 958 b 628 928 683 958 655 948 b 589 847 602 909 589 881 b 606 758 589 823 594 794 b 632 715 615 730 624 715 b 669 739 638 715 651 723 b 753 910 725 784 753 841 "},"'":{"ha":426,"x_min":0,"x_max":0,"o":"m 194 650 b 170 653 183 650 175 651 b 162 660 165 656 162 658 b 160 679 161 662 161 668 b 158 689 159 683 158 686 b 139 815 155 724 148 766 b 125 933 130 863 125 903 b 176 1042 125 980 142 1016 b 299 1081 209 1068 250 1081 b 397 1047 335 1081 367 1069 b 440 954 426 1025 440 994 b 404 867 440 925 428 897 b 323 776 380 838 353 808 b 263 683 293 744 273 713 b 259 670 262 680 260 675 b 256 660 258 665 257 662 b 251 655 256 659 254 657 b 242 651 249 653 245 651 b 225 650 238 650 232 650 "},"(":{"ha":667,"x_min":0,"x_max":0,"o":"m 517 -203 b 490 -231 508 -221 500 -231 b 456 -221 487 -231 475 -227 b 167 -12 329 -175 233 -105 b 69 326 102 80 69 193 b 236 821 69 521 125 686 b 690 1103 347 956 499 1050 b 714 1108 705 1106 713 1108 b 733 1088 719 1108 726 1101 l 763 1031 b 771 1007 768 1019 771 1012 b 769 1002 771 1005 770 1003 b 765 998 769 1001 767 999 b 758 994 762 997 760 995 b 747 991 755 994 752 992 b 733 986 741 990 737 988 b 487 740 630 947 547 865 b 396 326 426 614 396 476 b 503 -89 396 116 431 -22 b 524 -105 508 -94 515 -100 b 542 -118 532 -110 538 -114 b 547 -132 545 -122 547 -126 b 539 -158 547 -137 544 -145 "},")":{"ha":667,"x_min":0,"x_max":0,"o":"m 150 1081 b 176 1108 158 1099 167 1108 b 211 1099 180 1108 192 1105 b 499 890 338 1052 434 983 b 597 551 565 798 597 685 b 431 57 597 357 542 192 b -24 -225 319 -78 168 -172 b -47 -231 -38 -229 -46 -231 b -67 -210 -53 -231 -59 -224 l -96 -153 b -104 -129 -101 -142 -104 -134 b -103 -124 -104 -127 -104 -126 b -98 -120 -102 -123 -100 -122 b -91 -117 -96 -119 -93 -118 b -80 -113 -89 -116 -85 -115 b -67 -108 -75 -112 -70 -110 b 180 138 37 -69 119 13 b 271 551 241 264 271 401 b 164 967 271 762 235 900 b 143 983 158 972 151 978 b 125 996 135 988 129 992 b 119 1010 121 1000 119 1004 b 128 1036 119 1014 122 1023 "},"*":{"ha":915,"x_min":0,"x_max":0,"o":"m 435 865 b 424 895 433 870 429 880 l 413 928 b 406 957 411 935 409 945 b 403 992 404 969 403 981 b 450 1092 403 1036 419 1069 b 563 1125 481 1114 519 1125 b 656 1096 602 1125 634 1115 b 690 1013 679 1076 690 1049 b 667 949 690 991 682 970 b 603 879 651 928 630 905 b 543 813 576 853 556 831 b 521 774 528 793 521 780 b 522 771 521 772 521 771 b 563 806 528 771 541 782 b 585 831 566 809 574 818 b 610 860 596 845 604 854 b 633 883 615 866 623 874 b 664 904 644 891 654 899 b 728 922 685 916 706 922 b 858 832 779 922 822 892 b 882 756 874 805 882 780 b 825 665 882 718 863 688 b 775 654 811 658 794 654 b 679 672 756 654 724 660 b 579 693 635 684 601 691 b 549 694 571 694 561 694 b 531 692 537 694 531 694 b 576 674 531 686 546 680 b 621 665 584 672 599 669 b 676 652 643 660 662 656 b 718 635 691 648 705 642 b 782 528 761 611 782 575 b 753 429 782 494 772 461 b 650 358 726 382 692 358 b 592 375 631 358 611 364 b 549 426 573 385 559 402 b 519 517 538 450 529 481 b 493 601 510 554 501 582 b 468 642 481 628 473 642 b 465 638 466 642 465 640 b 475 597 465 630 469 617 b 487 563 478 590 482 578 b 499 525 492 547 496 534 b 507 491 501 516 504 504 b 511 453 510 478 511 465 b 464 353 511 408 495 375 b 351 319 432 331 395 319 b 258 349 312 319 280 329 b 224 432 235 368 224 396 b 245 493 224 452 231 473 b 308 563 259 513 280 537 b 367 626 335 590 355 611 b 393 669 384 650 393 665 b 390 672 393 671 392 672 b 346 632 383 672 368 659 b 329 613 342 628 337 622 b 311 592 322 603 316 596 b 294 574 306 587 301 581 b 273 555 287 566 280 560 b 251 540 266 550 259 545 b 188 522 230 528 209 522 b 56 613 136 522 92 552 b 32 689 40 639 32 665 b 89 779 32 727 51 757 b 139 792 104 788 120 792 b 238 773 158 792 191 785 b 343 751 284 760 319 753 b 368 750 350 750 358 750 b 385 754 379 750 385 751 b 339 771 385 759 369 764 b 294 779 331 773 317 775 b 239 791 272 783 254 787 b 197 810 224 795 210 801 b 133 918 155 834 133 870 b 161 1015 133 950 143 983 b 264 1086 188 1063 222 1086 b 322 1069 283 1086 303 1081 b 365 1019 341 1059 355 1042 b 395 928 375 995 385 965 b 422 843 405 891 414 863 b 446 803 434 816 442 803 b 449 810 448 803 449 805 b 435 865 449 822 444 840 "},"+":{"ha":736,"x_min":0,"x_max":0,"o":"m 608 518 l 621 518 b 647 512 635 518 644 516 b 653 479 651 508 653 497 l 653 404 l 653 381 b 647 363 653 371 651 365 b 621 358 644 360 635 358 l 476 358 b 435 353 453 358 439 356 b 421 318 430 349 425 338 l 390 194 b 376 158 386 174 381 162 b 331 153 371 155 356 153 l 256 153 b 221 167 232 153 221 157 b 229 203 221 169 224 181 l 253 303 b 257 318 254 307 255 313 b 261 332 259 324 260 328 b 263 342 262 336 263 339 b 211 358 263 353 245 358 l 131 358 l 124 358 b 89 365 104 358 93 360 b 83 404 85 369 83 382 l 83 479 b 88 512 83 497 85 508 b 111 518 91 516 99 518 l 133 518 l 261 518 l 280 518 b 293 521 285 518 289 519 b 301 524 297 523 300 524 b 308 532 303 525 305 527 b 312 540 310 537 311 539 b 315 552 312 540 313 544 b 318 567 316 560 317 565 l 347 686 b 351 701 349 694 350 699 b 354 710 351 702 352 705 b 359 717 356 714 358 717 b 367 720 360 718 363 719 b 379 722 370 722 375 722 l 397 722 l 474 722 b 515 708 501 722 515 718 b 507 672 515 706 513 694 l 481 565 b 474 532 476 549 474 538 b 483 520 474 525 477 522 b 519 518 489 519 501 518 "},",":{"ha":410,"x_min":0,"x_max":0,"o":"m -22 126 b 30 238 -22 172 -5 209 b 154 282 65 267 106 282 b 291 230 208 282 253 265 b 347 68 328 195 347 141 b 287 -81 347 13 327 -37 b 144 -177 247 -124 199 -156 b -25 -215 90 -198 33 -211 b -35 -216 -28 -215 -31 -216 b -43 -217 -40 -216 -42 -217 b -57 -211 -50 -217 -55 -215 b -60 -183 -59 -207 -60 -198 l -60 -135 b -59 -122 -60 -129 -59 -125 b -58 -113 -59 -118 -58 -116 b -53 -108 -57 -111 -56 -109 b -48 -106 -51 -106 -49 -106 b -37 -104 -47 -106 -43 -105 b -25 -103 -32 -103 -28 -103 b 94 -72 13 -98 53 -88 b 192 -15 135 -55 168 -37 b 204 3 200 -8 204 -2 b 200 7 204 6 203 7 b 183 0 196 7 191 5 b 108 -21 163 -14 138 -21 b 14 24 69 -21 38 -6 b -22 126 -10 53 -22 88 "},"-":{"ha":639,"x_min":0,"x_max":0,"o":"m 531 618 l 538 618 b 565 613 553 618 563 616 b 569 582 568 610 569 600 l 569 500 l 569 481 b 565 463 569 471 568 465 b 540 458 561 460 553 458 l 140 458 b 103 464 120 458 108 460 b 97 499 99 468 97 479 l 97 506 l 97 583 b 101 613 97 599 99 609 b 124 618 104 616 112 618 l 142 618 "},".":{"ha":479,"x_min":0,"x_max":0,"o":"m 7 139 b 56 257 7 185 23 225 b 174 306 89 289 128 306 b 291 257 219 306 258 289 b 340 139 324 225 340 185 b 291 21 340 93 324 53 b 174 -28 258 -12 219 -28 b 56 21 128 -28 89 -12 b 7 139 23 53 7 93 "},"/":{"ha":722,"x_min":0,"x_max":0,"o":"m 707 1083 b 757 1069 740 1083 757 1079 b 753 1057 757 1066 756 1062 b 742 1039 750 1052 746 1046 b 731 1019 737 1031 733 1025 l 113 -164 b 85 -201 100 -186 91 -199 b 36 -208 76 -206 60 -208 l -8 -208 l -19 -208 b -61 -200 -47 -208 -61 -206 b -47 -167 -61 -196 -56 -185 l 585 1031 b 614 1074 599 1056 608 1070 b 671 1083 624 1080 643 1083 "},":":{"ha":275,"x_min":0,"x_max":0,"o":"m 7 139 b 56 257 7 185 23 225 b 174 306 89 289 128 306 b 291 257 219 306 258 289 b 340 139 324 225 340 185 b 291 21 340 93 324 53 b 174 -28 258 -12 219 -28 b 56 21 128 -28 89 -12 b 7 139 23 53 7 93 m 132 722 b 181 840 132 769 148 808 b 299 889 214 873 253 889 b 416 840 344 889 383 873 b 465 722 449 808 465 769 b 416 604 465 676 449 637 b 299 556 383 572 344 556 b 181 604 253 556 214 572 b 132 722 148 637 132 676 "},";":{"ha":299,"x_min":0,"x_max":0,"o":"m -22 126 b 30 238 -22 172 -5 209 b 154 282 65 267 106 282 b 291 230 208 282 253 265 b 347 68 328 195 347 141 b 287 -81 347 13 327 -37 b 144 -177 247 -124 199 -156 b -25 -215 90 -198 33 -211 b -35 -216 -28 -215 -31 -216 b -43 -217 -40 -216 -42 -217 b -57 -211 -50 -217 -55 -215 b -60 -183 -59 -207 -60 -198 l -60 -135 b -59 -122 -60 -129 -59 -125 b -58 -113 -59 -118 -58 -116 b -53 -108 -57 -111 -56 -109 b -48 -106 -51 -106 -49 -106 b -37 -104 -47 -106 -43 -105 b -25 -103 -32 -103 -28 -103 b 94 -72 13 -98 53 -88 b 192 -15 135 -55 168 -37 b 204 3 200 -8 204 -2 b 200 7 204 6 203 7 b 183 0 196 7 191 5 b 108 -21 163 -14 138 -21 b 14 24 69 -21 38 -6 b -22 126 -10 53 -22 88 m 132 722 b 181 840 132 769 148 808 b 299 889 214 873 253 889 b 416 840 344 889 383 873 b 465 722 449 808 465 769 b 416 604 465 676 449 637 b 299 556 383 572 344 556 b 181 604 253 556 214 572 b 132 722 148 637 132 676 "},"<":{"ha":778,"x_min":0,"x_max":0,"o":"m 625 433 l 625 243 l 83 410 l 83 660 l 764 833 l 764 657 l 275 538 "},"=":{"ha":778,"x_min":0,"x_max":0,"o":"m 133 326 b 97 332 113 326 101 328 b 90 367 92 336 90 347 l 90 374 l 90 451 b 94 481 90 467 92 477 b 117 486 97 484 105 486 l 135 486 l 663 486 l 669 486 b 697 481 685 486 694 484 b 701 450 700 478 701 468 l 701 368 l 701 349 b 697 331 701 339 700 333 b 672 326 693 328 685 326 m 196 590 b 159 596 175 590 163 592 b 153 631 155 600 153 611 l 153 638 l 153 715 b 157 744 153 731 154 741 b 179 750 160 748 167 750 l 197 750 l 725 750 l 732 750 b 760 745 748 750 757 748 b 764 714 763 742 764 731 l 764 632 l 764 613 b 759 594 764 603 762 597 b 735 590 756 592 748 590 "},">":{"ha":778,"x_min":0,"x_max":0,"o":"m 153 643 l 153 833 l 694 667 l 694 417 l 14 243 l 14 419 l 503 539 "},"?":{"ha":847,"x_min":0,"x_max":0,"o":"m 186 139 b 235 257 186 185 202 225 b 353 306 267 289 306 306 b 471 257 399 306 438 289 b 519 139 503 225 519 185 b 471 21 519 93 503 53 b 353 -28 438 -12 399 -28 b 235 21 306 -28 267 -12 b 186 139 202 53 186 93 m 460 346 b 335 328 413 334 371 328 b 204 365 287 328 243 340 b 146 472 165 390 146 426 b 187 570 146 512 159 545 b 285 628 214 596 247 615 l 401 669 b 499 729 439 682 472 702 b 540 833 527 756 540 791 b 512 919 540 870 531 899 b 432 949 493 939 466 949 b 371 941 408 949 388 946 b 346 921 354 936 346 929 b 360 899 346 914 351 907 b 389 860 370 890 380 878 b 403 792 398 843 403 820 b 346 692 403 752 384 719 b 225 653 308 666 268 653 b 106 697 183 653 144 667 b 49 807 68 726 49 763 b 168 992 49 879 88 941 b 474 1069 248 1044 350 1069 b 741 1003 590 1069 679 1047 b 833 819 803 958 833 897 b 780 671 833 761 816 712 b 649 582 744 630 701 600 b 496 539 598 563 547 549 b 366 513 445 529 402 520 b 313 488 330 505 313 497 b 361 463 313 471 329 463 b 440 475 385 463 412 467 b 456 481 444 476 449 478 b 471 486 463 484 468 486 b 482 463 477 486 481 478 l 489 396 b 490 372 490 389 490 381 b 485 355 490 364 488 358 b 460 346 481 352 473 349 "},"@":{"ha":1597,"x_min":0,"x_max":0,"o":"m 936 481 b 934 534 936 504 935 522 b 922 567 933 547 929 557 b 894 581 916 576 906 581 b 818 494 866 581 840 552 b 785 333 796 437 785 383 b 790 269 785 302 787 281 b 811 253 794 258 801 253 b 895 326 840 253 868 277 b 936 481 922 375 936 427 m 1201 -146 b 721 -311 1084 -256 924 -311 b 555 -292 667 -311 612 -305 b 380 -226 498 -279 440 -257 b 221 -111 320 -195 267 -156 b 107 65 175 -66 137 -7 b 63 307 77 138 63 218 b 176 718 63 457 100 594 b 478 1008 252 842 353 939 b 882 1111 603 1077 738 1111 b 1346 955 1079 1111 1234 1059 b 1514 557 1458 851 1514 718 b 1464 331 1514 477 1497 402 b 1317 156 1431 260 1381 202 b 1099 88 1252 110 1179 88 b 940 160 1029 88 976 112 b 913 186 927 177 918 186 b 879 161 907 186 896 178 b 700 90 830 114 770 90 b 551 140 640 90 590 107 b 492 292 511 174 492 224 b 528 476 492 347 504 409 b 647 659 553 543 592 604 b 831 742 701 714 762 742 b 969 671 899 742 945 718 b 974 659 971 668 973 664 b 978 648 976 654 977 650 b 981 644 979 646 980 644 b 990 671 983 644 987 653 l 997 697 b 1006 719 1000 709 1003 716 b 1031 722 1008 721 1017 722 l 1206 722 b 1233 706 1224 722 1233 717 b 1228 676 1233 703 1231 693 l 1139 306 b 1133 268 1135 283 1133 271 b 1164 236 1133 247 1144 236 b 1293 322 1207 236 1250 265 b 1357 563 1336 380 1357 460 b 1331 713 1357 618 1348 668 b 1262 822 1313 757 1290 794 b 1163 894 1234 851 1200 875 b 1049 935 1125 914 1087 928 b 933 947 1011 943 972 947 b 732 906 865 947 798 933 b 553 789 666 878 607 839 b 424 595 500 739 457 674 b 375 335 391 516 375 429 b 483 -19 375 188 411 70 b 771 -151 554 -107 650 -151 b 947 -135 839 -151 898 -146 b 1090 -61 995 -124 1043 -99 b 1111 -41 1097 -56 1104 -49 b 1130 -24 1119 -33 1125 -27 b 1144 -18 1135 -20 1140 -18 b 1178 -37 1154 -18 1165 -25 l 1197 -57 b 1232 -103 1220 -80 1232 -95 b 1201 -146 1232 -112 1222 -126 "}}}
